<svg width="23" height="23" viewBox="0 0 23 23" fill="none" xmlns="http://www.w3.org/2000/svg">
<path d="M11.5 7.6665C16.2635 7.6665 20.125 6.37932 20.125 4.7915C20.125 3.20369 16.2635 1.9165 11.5 1.9165C6.73654 1.9165 2.875 3.20369 2.875 4.7915C2.875 6.37932 6.73654 7.6665 11.5 7.6665Z" stroke="white" stroke-width="2" stroke-linecap="round" stroke-linejoin="round"/>
<path d="M2.875 4.7915V18.2082C2.875 18.9707 3.7837 19.7019 5.4012 20.2411C7.0187 20.7803 9.21251 21.0832 11.5 21.0832C13.7875 21.0832 15.9813 20.7803 17.5988 20.2411C19.2163 19.7019 20.125 18.9707 20.125 18.2082V4.7915" stroke="white" stroke-width="2" stroke-linecap="round" stroke-linejoin="round"/>
<path d="M2.875 11.5C2.875 12.2625 3.7837 12.9938 5.4012 13.5329C7.0187 14.0721 9.21251 14.375 11.5 14.375C13.7875 14.375 15.9813 14.0721 17.5988 13.5329C19.2163 12.9938 20.125 12.2625 20.125 11.5" stroke="white" stroke-width="2" stroke-linecap="round" stroke-linejoin="round"/>
</svg>
