<svg width="23" height="23" viewBox="0 0 23 23" fill="none" xmlns="http://www.w3.org/2000/svg">
<path d="M10.5654 20.125V18.0646C9.71884 17.8729 8.98811 17.5056 8.37318 16.9625C7.75825 16.4194 7.30703 15.6528 7.01953 14.6625L8.79245 13.9437C9.03203 14.7104 9.38741 15.2934 9.85859 15.6927C10.3298 16.092 10.9487 16.2917 11.7154 16.2917C12.3702 16.2917 12.9253 16.1439 13.3805 15.8484C13.8357 15.553 14.0633 15.0938 14.0633 14.4708C14.0633 13.9118 13.8876 13.4686 13.5362 13.1411C13.1848 12.8137 12.3702 12.4424 11.0924 12.0271C9.71884 11.5958 8.77648 11.0807 8.26536 10.4818C7.75425 9.88281 7.4987 9.15208 7.4987 8.28958C7.4987 7.25139 7.83411 6.44479 8.50495 5.86979C9.17578 5.29479 9.86259 4.96736 10.5654 4.8875V2.875H12.482V4.8875C13.2806 5.01528 13.9395 5.30677 14.4586 5.76198C14.9777 6.21719 15.357 6.77222 15.5966 7.42708L13.8237 8.19375C13.632 7.68264 13.3605 7.29931 13.0091 7.04375C12.6577 6.78819 12.1786 6.66042 11.5716 6.66042C10.8688 6.66042 10.3338 6.81615 9.96641 7.1276C9.59905 7.43906 9.41536 7.82639 9.41536 8.28958C9.41536 8.81667 9.65495 9.23194 10.1341 9.53542C10.6133 9.83889 11.4438 10.1583 12.6258 10.4937C13.7279 10.8132 14.5624 11.3203 15.1294 12.0151C15.6964 12.7099 15.9799 13.5125 15.9799 14.4229C15.9799 15.5569 15.6445 16.4194 14.9737 17.0104C14.3029 17.6014 13.4723 17.9688 12.482 18.1125V20.125H10.5654Z" fill="white"/>
</svg>
