<svg width="23" height="23" viewBox="0 0 23 23" fill="none" xmlns="http://www.w3.org/2000/svg">
<path d="M13.6371 11.5039C13.6371 12.072 13.4115 12.6169 13.0098 13.0187C12.6081 13.4206 12.0634 13.6464 11.4952 13.6467C10.9269 13.6467 10.3819 13.4209 9.98 13.0191C9.57814 12.6172 9.35238 12.0722 9.35238 11.5039C9.35238 10.9357 9.57801 10.3908 9.97966 9.98899C10.3813 9.58716 10.9261 9.36128 11.4943 9.36103C12.0626 9.36103 12.6076 9.58679 13.0095 9.98865C13.4113 10.3905 13.6371 10.9355 13.6371 11.5039ZM16.1747 1.25928C14.8848 1.25928 13.1972 2.17928 11.4904 3.77203C9.78458 2.1879 8.096 1.27844 6.80704 1.27844C6.41412 1.27844 6.05667 1.36757 5.74713 1.54486C4.42942 2.30482 4.13425 4.67286 4.81467 7.64465C1.8975 8.54549 0 9.98586 0 11.5039C0 13.0276 1.90708 14.4718 4.83288 15.3659C4.15821 18.3492 4.45913 20.7211 5.77971 21.4801C6.08638 21.6593 6.44096 21.7437 6.83579 21.7437C8.12475 21.7437 9.81333 20.8237 11.5201 19.229C13.226 20.8141 14.9145 21.7235 16.2035 21.7235C16.5964 21.7235 16.9539 21.6373 17.2634 21.46C18.5802 20.701 18.8763 18.3329 18.1959 15.3602C21.1025 14.467 23 13.0238 23 11.5039C23 9.98011 21.0929 8.5359 18.1671 7.63986C18.8418 4.65944 18.5409 2.28565 17.2203 1.52569C16.9155 1.34936 16.5619 1.26024 16.1747 1.25928ZM16.17 2.30386V2.30961C16.3856 2.30961 16.559 2.35178 16.7047 2.43132C17.343 2.7974 17.6199 4.18986 17.4043 5.98099C17.3525 6.42182 17.2682 6.88661 17.1647 7.36099C16.2447 7.13482 15.2423 6.96136 14.1872 6.84924C13.5547 5.98194 12.8982 5.19419 12.237 4.50419C13.7626 3.08586 15.1953 2.30769 16.1709 2.30482L16.17 2.30386ZM6.80704 2.32303C7.77688 2.32303 9.21629 3.09736 10.7458 4.50803C10.0884 5.19803 9.43287 5.98099 8.80996 6.84828C7.74908 6.9604 6.74571 7.13386 5.82667 7.36386C5.71933 6.89428 5.63979 6.44003 5.58325 6.00303C5.36283 4.21286 5.635 2.82136 6.2675 2.45049C6.44958 2.36424 6.65083 2.32782 6.80704 2.32303ZM11.4856 5.24594C11.9217 5.69444 12.3577 6.19661 12.789 6.74478C12.3673 6.72561 11.936 6.71219 11.5 6.71219C11.0592 6.71219 10.6231 6.72178 10.1967 6.74478C10.6183 6.19661 11.0544 5.6954 11.4856 5.24594ZM11.5 7.76253C12.2092 7.76253 12.9155 7.79511 13.6102 7.85165C13.9993 8.4094 14.3788 9.00453 14.744 9.63415C15.1005 10.2475 15.4244 10.8704 15.7195 11.4991C15.4244 12.1268 15.1005 12.7545 14.7487 13.3678C14.3846 14.0003 14.008 14.6022 13.6179 15.1599C12.9202 15.2203 12.213 15.2538 11.5 15.2538C10.7908 15.2538 10.0845 15.2203 9.38975 15.1647C9.00067 14.6069 8.62117 14.0109 8.25604 13.3822C7.89954 12.7689 7.57562 12.1459 7.28046 11.5173C7.57083 10.8877 7.89954 10.259 8.25125 9.64469C8.61542 9.01219 8.99204 8.41228 9.38208 7.85453C10.0798 7.79319 10.787 7.76061 11.5 7.76061V7.76253ZM8.01646 8.00594C7.78646 8.36724 7.55646 8.73715 7.34179 9.11761C7.12617 9.49136 6.92492 9.86703 6.73325 10.2427C6.47929 9.61403 6.26367 8.98728 6.08542 8.37682C6.69875 8.23307 7.34562 8.10465 8.01646 8.00594ZM14.974 8.00594C15.64 8.10465 16.2821 8.22636 16.8964 8.37682C16.7239 8.98249 16.5083 9.6054 16.2639 10.2293C16.0722 9.85553 15.871 9.4789 15.6505 9.10419C15.4349 8.72853 15.2049 8.36244 14.9749 8.00594H14.974ZM17.9093 8.65282C18.3732 8.79657 18.814 8.95661 19.227 9.13007C20.8869 9.83924 21.9602 10.7669 21.9602 11.5029C21.9554 12.2389 20.8821 13.1704 19.2222 13.8748C18.8197 14.0473 18.3789 14.2025 17.9237 14.3472C17.6554 13.4292 17.3046 12.4727 16.8695 11.4914C17.3008 10.5168 17.6458 9.56515 17.9093 8.6509V8.65282ZM5.07246 8.65665C5.33888 9.57665 5.69058 10.5321 6.12663 11.5125C5.69537 12.4871 5.34846 13.4387 5.08588 14.353C4.62204 14.2092 4.18121 14.0482 3.77296 13.8738C2.11313 13.1675 1.03979 12.2389 1.03979 11.5029C1.03979 10.7669 2.11313 9.83349 3.77296 9.13007C4.17546 8.95757 4.61629 8.80232 5.07246 8.65665ZM16.2639 12.7583C16.5178 13.3879 16.7335 14.0157 16.9117 14.6252C16.2984 14.7756 15.6505 14.9031 14.9797 14.9989C15.2097 14.6395 15.4397 14.2687 15.6553 13.8892C15.871 13.5154 16.0713 13.134 16.2639 12.7583ZM6.73325 12.7775C6.92492 13.1532 7.12617 13.5279 7.34658 13.9035C7.567 14.2773 7.79221 14.6434 8.02221 14.9989C7.35617 14.9012 6.71408 14.7785 6.09979 14.629C6.27229 14.0252 6.48887 13.4004 6.73229 12.7765L6.73325 12.7775ZM17.1733 15.64C17.2807 16.1125 17.365 16.5677 17.4167 17.0037C17.6372 18.7939 17.365 20.1854 16.7325 20.5572C16.5916 20.6435 16.4086 20.6799 16.193 20.6799C15.2231 20.6799 13.7837 19.9065 12.2542 18.4949C12.9116 17.8049 13.5671 17.0229 14.19 16.1566C15.2509 16.0435 16.2543 15.87 17.1733 15.64ZM5.83625 15.6496C6.75625 15.8739 7.75867 16.0473 8.81379 16.1594C9.44629 17.0267 10.1027 17.8145 10.764 18.5035C9.23546 19.9247 7.80083 20.7029 6.82525 20.7029C6.61442 20.6981 6.43617 20.655 6.29529 20.5764C5.65704 20.2122 5.38008 18.8188 5.59571 17.0277C5.64746 16.5869 5.73275 16.123 5.83625 15.6496ZM10.2062 16.2629C10.6279 16.2821 11.0592 16.2955 11.4952 16.2955C11.936 16.2955 12.3721 16.2859 12.7985 16.2629C12.3769 16.8111 11.9408 17.3123 11.5096 17.7627C11.0735 17.3123 10.6375 16.8111 10.2062 16.2629Z" fill="white"/>
</svg>
