<svg width="24" height="24" viewBox="0 0 24 24" fill="none" xmlns="http://www.w3.org/2000/svg">
<path d="M23.8699 5.28017H23.4619C22.9574 5.28017 22.4822 5.51537 22.1755 5.91569L17.9995 11.3766L13.8235 5.91569C13.5178 5.51537 13.0421 5.28017 12.5381 5.28017H12.1301L17.3962 12.1662L12.0173 19.2002H12.4253C12.9298 19.2002 13.405 18.965 13.7112 18.5646L18 12.9563L22.2888 18.5646C22.595 18.965 23.0702 19.2002 23.5747 19.2002H23.9827L18.6038 12.1662L23.8699 5.28017ZM10.2187 16.4363C8.9928 18.2992 6.57936 19.2539 4.272 18.412C2.24208 17.6714 0.96 15.6534 0.96 13.4925V12.9602H6.72H12V10.9758C12 7.85345 9.68736 5.11985 6.5784 4.82753C3.01104 4.49201 0 7.30097 0 10.8002V13.4752C0 16.0533 1.5432 18.4499 3.96912 19.323C7.13856 20.4635 10.4722 18.7614 11.5992 15.8402H11.293C10.8557 15.8402 10.4587 16.071 10.2187 16.4363ZM0.96 10.8002C0.96 8.02097 3.2208 5.76017 6 5.76017C8.7792 5.76017 11.04 8.02097 11.04 10.8002V12.0002H0.96V10.8002Z" fill="#A8A8A8"/>
</svg>
