<svg width="24" height="24" viewBox="0 0 24 24" fill="none" xmlns="http://www.w3.org/2000/svg">
<g clip-path="url(#clip0_495_11)">
<mask id="mask0_495_11" style="mask-type:luminance" maskUnits="userSpaceOnUse" x="0" y="0" width="24" height="24">
<path d="M24 0H0V24H24V0Z" fill="white"/>
</mask>
<g mask="url(#mask0_495_11)">
<path d="M11.9245 0.0654297L12.565 1.26843C12.709 1.49043 12.865 1.68693 13.0488 1.86993C13.585 2.40618 14.0943 2.96793 14.5518 3.56943C15.637 4.99443 16.369 6.57693 16.8918 8.28843C17.2053 9.33393 17.3755 10.4064 17.3883 11.4909C17.4408 14.7332 16.3293 17.5172 14.0883 19.8309C13.7223 20.1969 13.3308 20.5359 12.9108 20.8374C12.6888 20.8374 12.5838 20.6672 12.4923 20.5104C12.322 20.2232 12.2178 19.8954 12.1653 19.5692C12.0865 19.1769 12.0348 18.7847 12.0603 18.3797V18.1967C12.0423 18.1577 11.8465 0.15768 11.9245 0.0654297Z" fill="#A8A8A8"/>
<path d="M11.9247 0.025314C11.8984 -0.027186 11.8722 0.012564 11.8459 0.038064C11.8587 0.300564 11.7672 0.534564 11.6239 0.758064C11.4664 0.980064 11.2579 1.15031 11.0487 1.33331C9.88618 2.33981 8.97118 3.55556 8.23843 4.91531C7.26343 6.74531 6.76093 8.70657 6.61843 10.7713C6.55318 11.5161 6.85393 14.1441 7.08868 14.9023C7.72918 16.9153 8.87968 18.6021 10.3699 20.0661C10.7359 20.4186 11.1274 20.7456 11.5324 21.0598C11.6502 21.0598 11.6629 20.9548 11.6899 20.8768C11.7416 20.7099 11.7809 20.5395 11.8077 20.3668L12.0702 18.4063L11.9247 0.025314Z" fill="#A8A8A8"/>
<path d="M12.566 21.6336C12.5922 21.3336 12.7362 21.0846 12.893 20.8363C12.7355 20.7711 12.6185 20.6412 12.527 20.4965C12.4482 20.366 12.383 20.2093 12.332 20.0653C12.149 19.5163 12.11 18.9402 12.0575 18.3792V18.0396C11.9922 18.0921 11.9787 18.5361 11.9787 18.6021C11.9405 19.195 11.8619 19.7846 11.7432 20.3668C11.7042 20.6023 11.678 20.8371 11.5332 21.0463C11.5332 21.0726 11.5332 21.0988 11.546 21.1378C11.7815 21.8308 11.846 22.5366 11.8857 23.2558V23.5182C11.8857 23.8317 11.873 23.7658 12.1332 23.8708C12.2382 23.9098 12.3552 23.9233 12.4602 24.0013C12.539 24.0013 12.5517 23.9361 12.5517 23.8836L12.5127 23.4522V22.2493C12.5 22.0393 12.539 21.8308 12.5652 21.6343L12.566 21.6336Z" fill="#A8A8A8"/>
</g>
</g>
<defs>
<clipPath id="clip0_495_11">
<rect width="24" height="24" fill="white"/>
</clipPath>
</defs>
</svg>
