<svg width="24" height="21" viewBox="0 0 24 21" fill="none" xmlns="http://www.w3.org/2000/svg">
<g clip-path="url(#clip0_495_2)">
<mask id="mask0_495_2" style="mask-type:luminance" maskUnits="userSpaceOnUse" x="0" y="0" width="24" height="21">
<path d="M24 0H0V21H24V0Z" fill="white"/>
</mask>
<g mask="url(#mask0_495_2)">
<path d="M23.8071 15.7442V20.9922H10.4723C6.58727 20.9922 3.19511 18.8816 1.38024 15.7442C1.11641 15.2881 0.885491 14.8096 0.691789 14.3129C0.311544 13.3396 0.0725188 12.2953 0 11.2056V9.78669C0.0157442 9.54384 0.0405531 9.30289 0.0729958 9.06482C0.139312 8.57629 0.239503 8.09824 0.371181 7.63354C1.61688 3.22802 5.66743 0 10.4723 0C15.2771 0 19.3272 3.22802 20.5729 7.63354H14.8711C13.935 6.19749 12.3148 5.24807 10.4723 5.24807C8.62971 5.24807 7.0095 6.19749 6.07344 7.63354C5.78814 8.07009 5.56676 8.55148 5.42173 9.06482C5.2929 9.51999 5.2242 9.99994 5.2242 10.4961C5.2242 12.0004 5.85684 13.3563 6.87114 14.3129C7.81104 15.2008 9.07819 15.7442 10.4723 15.7442H23.8071Z" fill="#A8A8A8"/>
<path d="M23.807 9.06494V14.313H14.0732C15.0876 13.3564 15.7202 12.0005 15.7202 10.4962C15.7202 10.0001 15.6515 9.52011 15.5227 9.06494H23.807Z" fill="#A8A8A8"/>
</g>
</g>
<defs>
<clipPath id="clip0_495_2">
<rect width="24" height="21" fill="white"/>
</clipPath>
</defs>
</svg>
