<svg width="24" height="24" viewBox="0 0 24 24" fill="none" xmlns="http://www.w3.org/2000/svg">
<path d="M6.306 8.71094C3.704 9.43394 2 10.6369 2 11.9999C2 14.2099 6.477 15.9999 12 15.9999C12.773 15.9999 13.526 15.9649 14.248 15.8979" stroke="#A8A8A8" stroke-width="2" stroke-linecap="round" stroke-linejoin="round"/>
<path d="M17.692 15.289C20.295 14.567 22 13.363 22 12C22 9.79 17.523 8 12 8C11.227 8 10.474 8.035 9.75 8.102" stroke="#A8A8A8" stroke-width="2" stroke-linecap="round" stroke-linejoin="round"/>
<path d="M6.30535 15.287C5.62935 17.902 5.82035 19.98 7.00035 20.66C8.91335 21.765 12.7034 18.783 15.4644 14C15.8514 13.33 16.1974 12.661 16.5004 12" stroke="#A8A8A8" stroke-width="2" stroke-linecap="round" stroke-linejoin="round"/>
<path d="M17.694 8.71641C18.371 6.10041 18.181 4.02041 17 3.34041C15.087 2.23541 11.297 5.21741 8.53602 10.0004C8.14902 10.6704 7.80302 11.3404 7.49902 12.0004" stroke="#A8A8A8" stroke-width="2" stroke-linecap="round" stroke-linejoin="round"/>
<path d="M12.0004 5.42455C10.0754 3.53255 8.18035 2.65855 7.00035 3.34055C5.08735 4.44455 5.77435 9.21755 8.53635 14.0006C8.92235 14.6706 9.32935 15.3046 9.74835 15.8966" stroke="#A8A8A8" stroke-width="2" stroke-linecap="round" stroke-linejoin="round"/>
<path d="M12 18.5745C13.926 20.4675 15.821 21.3425 17 20.6605C18.913 19.5565 18.226 14.7835 15.464 10.0005C15.089 9.35052 14.684 8.71752 14.252 8.10352" stroke="#A8A8A8" stroke-width="2" stroke-linecap="round" stroke-linejoin="round"/>
<path d="M11.5001 12.8666C11.6139 12.9333 11.7397 12.9768 11.8704 12.9947C12.0011 13.0126 12.134 13.0044 12.2615 12.9707C12.389 12.937 12.5085 12.8784 12.6133 12.7983C12.7181 12.7182 12.8059 12.6181 12.8719 12.5039C12.9378 12.3897 12.9805 12.2636 12.9975 12.1328C13.0145 12.002 13.0055 11.8692 12.9709 11.7419C12.9364 11.6146 12.877 11.4955 12.7962 11.3912C12.7154 11.287 12.6148 11.1998 12.5001 11.1346C12.2706 11.0041 11.9987 10.9697 11.7439 11.0389C11.489 11.108 11.2719 11.2752 11.1398 11.5039C11.0078 11.7326 10.9716 12.0042 11.0391 12.2595C11.1066 12.5148 11.2723 12.7331 11.5001 12.8666Z" stroke="#A8A8A8" stroke-width="2" stroke-linecap="round" stroke-linejoin="round"/>
</svg>
